v -0.2 0 0.1
v -0.2 0 0.1
v -0.2 0 0.1
v -0.2 0 0.1
v -0.2 -0.3 0.11
v -0.2 -0.3 0.09
v -0.2 0.3 0.09
v -0.2 0.3 0.11
v 0 -0.3 0.11
v 0 -0.3 0.09
v 0 0.3 0.09
v 0 0.3 0.11
v 0.2 -0.3 0.11
v 0.2 -0.3 0.09
v 0.2 0.3 0.09
v 0.2 0.3 0.11
v 0.2 0 0.1
v 0.2 0 0.1
v 0.2 0 0.1
v 0.2 0 0.1
v -0.3 0.29 0.1
v -0.3 0.29 0.1
v -0.3 0.29 0.1
v -0.3 0.29 0.1
v -0.3 0.29 0.1
v -0.3 0.29 0.1
v -0.3 0.29 0.1
v -0.3 0.29 0.1
v -0.3 0.29 0.1
v -0.3 0.29 0.1
v -0.3 0.29 0.1
v -0.3 0.29 0.1
v -0.3 0.29 0.1
v -0.3 0.29 0.1
v -0.3 0.29 0.1
v -0.3 0.29 0.1
v -0.3 0.29 0.1
v -0.3 0.29 0.1
v -0.3 0.29 0.1
v -0.3 0.29 0.1
v -0.3 0.29 0.15
v -0.3 0.27455 0.14755
v -0.3 0.26061 0.14045
v -0.3 0.24955 0.12939
v -0.3 0.24245 0.11545
v -0.3 0.24 0.1
v -0.3 0.24245 0.08455
v -0.3 0.24955 0.07061
v -0.3 0.26061 0.05955
v -0.3 0.27455 0.05245
v -0.3 0.29 0.05
v -0.3 0.30545 0.05245
v -0.3 0.31939 0.05955
v -0.3 0.33045 0.07061
v -0.3 0.33755 0.08455
v -0.3 0.34 0.1
v -0.3 0.33755 0.11545
v -0.3 0.33045 0.12939
v -0.3 0.31939 0.14045
v -0.3 0.30545 0.14755
v -0.2 0.29 0.15
v -0.2 0.27455 0.14755
v -0.2 0.26061 0.14045
v -0.2 0.24955 0.12939
v -0.2 0.24245 0.11545
v -0.2 0.24 0.1
v -0.2 0.24245 0.08455
v -0.2 0.24955 0.07061
v -0.2 0.26061 0.05955
v -0.2 0.27455 0.05245
v -0.2 0.29 0.05
v -0.2 0.30545 0.05245
v -0.2 0.31939 0.05955
v -0.2 0.33045 0.07061
v -0.2 0.33755 0.08455
v -0.2 0.34 0.1
v -0.2 0.33755 0.11545
v -0.2 0.33045 0.12939
v -0.2 0.31939 0.14045
v -0.2 0.30545 0.14755
v -0.2 0.29 0.12
v -0.2 0.28382 0.11902
v -0.2 0.27824 0.11618
v -0.2 0.27382 0.11176
v -0.2 0.27098 0.10618
v -0.2 0.27 0.1
v -0.2 0.27098 0.09382
v -0.2 0.27382 0.08824
v -0.2 0.27824 0.08382
v -0.2 0.28382 0.08098
v -0.2 0.29 0.08
v -0.2 0.29618 0.08098
v -0.2 0.30176 0.08382
v -0.2 0.30618 0.08824
v -0.2 0.30902 0.09382
v -0.2 0.31 0.1
v -0.2 0.30902 0.10618
v -0.2 0.30618 0.11176
v -0.2 0.30176 0.11618
v -0.2 0.29618 0.11902
v 0.8 0.29 0.12
v 0.8 0.28382 0.11902
v 0.8 0.27824 0.11618
v 0.8 0.27382 0.11176
v 0.8 0.27098 0.10618
v 0.8 0.27 0.1
v 0.8 0.27098 0.09382
v 0.8 0.27382 0.08824
v 0.8 0.27824 0.08382
v 0.8 0.28382 0.08098
v 0.8 0.29 0.08
v 0.8 0.29618 0.08098
v 0.8 0.30176 0.08382
v 0.8 0.30618 0.08824
v 0.8 0.30902 0.09382
v 0.8 0.31 0.1
v 0.8 0.30902 0.10618
v 0.8 0.30618 0.11176
v 0.8 0.30176 0.11618
v 0.8 0.29618 0.11902
v 0.8 0.29 0.1
v 0.8 0.29 0.1
v 0.8 0.29 0.1
v 0.8 0.29 0.1
v 0.8 0.29 0.1
v 0.8 0.29 0.1
v 0.8 0.29 0.1
v 0.8 0.29 0.1
v 0.8 0.29 0.1
v 0.8 0.29 0.1
v 0.8 0.29 0.1
v 0.8 0.29 0.1
v 0.8 0.29 0.1
v 0.8 0.29 0.1
v 0.8 0.29 0.1
v 0.8 0.29 0.1
v 0.8 0.29 0.1
v 0.8 0.29 0.1
v 0.8 0.29 0.1
v 0.8 0.29 0.1

vt 0.8125 -0.975
vt 0.8125 -0.775
vt 0.8625 -0.775
vt 0.8625 -0.975
vt 0.8125 -0.975
vt 0.8625 -0.775
vt 0.7625 -0.975
vt 0.7625 -0.775
vt 0.8125 -0.775
vt 0.8125 -0.975
vt 0.7625 -0.975
vt 0.8125 -0.775
vt 0.8125 -0.975
vt 0.8125 -0.775
vt 0.8625 -0.975
vt 0.8125 -0.775
vt 0.8625 -0.775
vt 0.8625 -0.975
vt 0.7625 -0.975
vt 0.7625 -0.775
vt 0.8125 -0.975
vt 0.7625 -0.775
vt 0.8125 -0.775
vt 0.8125 -0.975
vt 0.7625 -0.975
vt 0.7625 -0.775
vt 0.8625 -0.775
vt 0.8625 -0.975
vt 0.7625 -0.975
vt 0.8625 -0.775
vt 0.7625 -0.975
vt 0.7625 -0.775
vt 0.8625 -0.775
vt 0.8625 -0.975
vt 0.7625 -0.975
vt 0.8625 -0.775
vt 0.7625 -0.975
vt 0.7625 -0.775
vt 0.8625 -0.975
vt 0.7625 -0.775
vt 0.8625 -0.775
vt 0.8625 -0.975
vt 0.7625 -0.975
vt 0.7625 -0.775
vt 0.8625 -0.975
vt 0.7625 -0.775
vt 0.8625 -0.775
vt 0.8625 -0.975
vt 0.0125 0.775
vt 0.0125 0.975
vt 0.1125 0.975
vt 0.1125 0.775
vt 0.0125 0.775
vt 0.1125 0.975
vt 0.0125 0.775
vt 0.0125 0.975
vt 0.1125 0.975
vt 0.1125 0.775
vt 0.0125 0.775
vt 0.1125 0.975
vt 0.0125 0.775
vt 0.0125 0.975
vt 0.1125 0.775
vt 0.0125 0.975
vt 0.1125 0.975
vt 0.1125 0.775
vt 0.0125 0.775
vt 0.0125 0.975
vt 0.1125 0.775
vt 0.0125 0.975
vt 0.1125 0.975
vt 0.1125 0.775
vt 0.0625 0.775
vt 0.0625 0.975
vt 0.1125 0.975
vt 0.1125 0.775
vt 0.0625 0.775
vt 0.1125 0.975
vt 0.0125 0.775
vt 0.0125 0.975
vt 0.0625 0.975
vt 0.0625 0.775
vt 0.0125 0.775
vt 0.0625 0.975
vt 0.0625 0.775
vt 0.0625 0.975
vt 0.1125 0.775
vt 0.0625 0.975
vt 0.1125 0.975
vt 0.1125 0.775
vt 0.0125 0.775
vt 0.0125 0.975
vt 0.0625 0.775
vt 0.0125 0.975
vt 0.0625 0.975
vt 0.0625 0.775
vt 0.5625 0.775
vt 0.5625 0.975
vt 0.5725 0.975
vt 0.5725 0.775
vt 0.5625 0.775
vt 0.5725 0.975
vt 0.5725 0.775
vt 0.5725 0.975
vt 0.5825 0.975
vt 0.5825 0.775
vt 0.5725 0.775
vt 0.5825 0.975
vt 0.5825 0.775
vt 0.5825 0.975
vt 0.5925 0.975
vt 0.5925 0.775
vt 0.5825 0.775
vt 0.5925 0.975
vt 0.5925 0.775
vt 0.5925 0.975
vt 0.6025 0.975
vt 0.6025 0.775
vt 0.5925 0.775
vt 0.6025 0.975
vt 0.6025 0.775
vt 0.6025 0.975
vt 0.6125 0.975
vt 0.6125 0.775
vt 0.6025 0.775
vt 0.6125 0.975
vt 0.5125 0.775
vt 0.5125 0.975
vt 0.5225 0.975
vt 0.5225 0.775
vt 0.5125 0.775
vt 0.5225 0.975
vt 0.5225 0.775
vt 0.5225 0.975
vt 0.5325 0.975
vt 0.5325 0.775
vt 0.5225 0.775
vt 0.5325 0.975
vt 0.5325 0.775
vt 0.5325 0.975
vt 0.5425 0.975
vt 0.5425 0.775
vt 0.5325 0.775
vt 0.5425 0.975
vt 0.5425 0.775
vt 0.5425 0.975
vt 0.5525 0.975
vt 0.5525 0.775
vt 0.5425 0.775
vt 0.5525 0.975
vt 0.5525 0.775
vt 0.5525 0.975
vt 0.5625 0.975
vt 0.5625 0.775
vt 0.5525 0.775
vt 0.5625 0.975
vt 0.5625 0.775
vt 0.5625 0.975
vt 0.5725 0.775
vt 0.5625 0.975
vt 0.5725 0.975
vt 0.5725 0.775
vt 0.5725 0.775
vt 0.5725 0.975
vt 0.5825 0.775
vt 0.5725 0.975
vt 0.5825 0.975
vt 0.5825 0.775
vt 0.5825 0.775
vt 0.5825 0.975
vt 0.5925 0.775
vt 0.5825 0.975
vt 0.5925 0.975
vt 0.5925 0.775
vt 0.5925 0.775
vt 0.5925 0.975
vt 0.6025 0.775
vt 0.5925 0.975
vt 0.6025 0.975
vt 0.6025 0.775
vt 0.6025 0.775
vt 0.6025 0.975
vt 0.6125 0.775
vt 0.6025 0.975
vt 0.6125 0.975
vt 0.6125 0.775
vt 0.5125 0.775
vt 0.5125 0.975
vt 0.5225 0.775
vt 0.5125 0.975
vt 0.5225 0.975
vt 0.5225 0.775
vt 0.5225 0.775
vt 0.5225 0.975
vt 0.5325 0.775
vt 0.5225 0.975
vt 0.5325 0.975
vt 0.5325 0.775
vt 0.5325 0.775
vt 0.5325 0.975
vt 0.5425 0.775
vt 0.5325 0.975
vt 0.5425 0.975
vt 0.5425 0.775
vt 0.5425 0.775
vt 0.5425 0.975
vt 0.5525 0.775
vt 0.5425 0.975
vt 0.5525 0.975
vt 0.5525 0.775
vt 0.5525 0.775
vt 0.5525 0.975
vt 0.5625 0.775
vt 0.5525 0.975
vt 0.5625 0.975
vt 0.5625 0.775
vt 0.5125 0.775
vt 0.5125 0.975
vt 0.5325 0.975
vt 0.5325 0.775
vt 0.5125 0.775
vt 0.5325 0.975
vt 0.5325 0.775
vt 0.5325 0.975
vt 0.5525 0.975
vt 0.5525 0.775
vt 0.5325 0.775
vt 0.5525 0.975
vt 0.5525 0.775
vt 0.5525 0.975
vt 0.5725 0.975
vt 0.5725 0.775
vt 0.5525 0.775
vt 0.5725 0.975
vt 0.5725 0.775
vt 0.5725 0.975
vt 0.5925 0.975
vt 0.5925 0.775
vt 0.5725 0.775
vt 0.5925 0.975
vt 0.5925 0.775
vt 0.5925 0.975
vt 0.6125 0.975
vt 0.6125 0.775
vt 0.5925 0.775
vt 0.6125 0.975
vt 0.5125 0.775
vt 0.5125 0.975
vt 0.5325 0.975
vt 0.5325 0.775
vt 0.5125 0.775
vt 0.5325 0.975
vt 0.5325 0.775
vt 0.5325 0.975
vt 0.5525 0.975
vt 0.5525 0.775
vt 0.5325 0.775
vt 0.5525 0.975
vt 0.5525 0.775
vt 0.5525 0.975
vt 0.5725 0.975
vt 0.5725 0.775
vt 0.5525 0.775
vt 0.5725 0.975
vt 0.5725 0.775
vt 0.5725 0.975
vt 0.5925 0.975
vt 0.5925 0.775
vt 0.5725 0.775
vt 0.5925 0.975
vt 0.5925 0.775
vt 0.5925 0.975
vt 0.6125 0.975
vt 0.6125 0.775
vt 0.5925 0.775
vt 0.6125 0.975
vt 0.5125 0.775
vt 0.5125 0.975
vt 0.5325 0.775
vt 0.5125 0.975
vt 0.5325 0.975
vt 0.5325 0.775
vt 0.5325 0.775
vt 0.5325 0.975
vt 0.5525 0.775
vt 0.5325 0.975
vt 0.5525 0.975
vt 0.5525 0.775
vt 0.5525 0.775
vt 0.5525 0.975
vt 0.5725 0.775
vt 0.5525 0.975
vt 0.5725 0.975
vt 0.5725 0.775
vt 0.5725 0.775
vt 0.5725 0.975
vt 0.5925 0.775
vt 0.5725 0.975
vt 0.5925 0.975
vt 0.5925 0.775
vt 0.5925 0.775
vt 0.5925 0.975
vt 0.6125 0.775
vt 0.5925 0.975
vt 0.6125 0.975
vt 0.6125 0.775
vt 0.5125 0.775
vt 0.5125 0.975
vt 0.5325 0.775
vt 0.5125 0.975
vt 0.5325 0.975
vt 0.5325 0.775
vt 0.5325 0.775
vt 0.5325 0.975
vt 0.5525 0.775
vt 0.5325 0.975
vt 0.5525 0.975
vt 0.5525 0.775
vt 0.5525 0.775
vt 0.5525 0.975
vt 0.5725 0.775
vt 0.5525 0.975
vt 0.5725 0.975
vt 0.5725 0.775
vt 0.5725 0.775
vt 0.5725 0.975
vt 0.5925 0.775
vt 0.5725 0.975
vt 0.5925 0.975
vt 0.5925 0.775
vt 0.5925 0.775
vt 0.5925 0.975
vt 0.6125 0.775
vt 0.5925 0.975
vt 0.6125 0.975
vt 0.6125 0.775
vt 0.5625 0.775
vt 0.5625 0.975
vt 0.5725 0.975
vt 0.5725 0.775
vt 0.5625 0.775
vt 0.5725 0.975
vt 0.5725 0.775
vt 0.5725 0.975
vt 0.5825 0.975
vt 0.5825 0.775
vt 0.5725 0.775
vt 0.5825 0.975
vt 0.5825 0.775
vt 0.5825 0.975
vt 0.5925 0.975
vt 0.5925 0.775
vt 0.5825 0.775
vt 0.5925 0.975
vt 0.5925 0.775
vt 0.5925 0.975
vt 0.6025 0.975
vt 0.6025 0.775
vt 0.5925 0.775
vt 0.6025 0.975
vt 0.6025 0.775
vt 0.6025 0.975
vt 0.6125 0.975
vt 0.6125 0.775
vt 0.6025 0.775
vt 0.6125 0.975
vt 0.5125 0.775
vt 0.5125 0.975
vt 0.5225 0.975
vt 0.5225 0.775
vt 0.5125 0.775
vt 0.5225 0.975
vt 0.5225 0.775
vt 0.5225 0.975
vt 0.5325 0.975
vt 0.5325 0.775
vt 0.5225 0.775
vt 0.5325 0.975
vt 0.5325 0.775
vt 0.5325 0.975
vt 0.5425 0.975
vt 0.5425 0.775
vt 0.5325 0.775
vt 0.5425 0.975
vt 0.5425 0.775
vt 0.5425 0.975
vt 0.5525 0.975
vt 0.5525 0.775
vt 0.5425 0.775
vt 0.5525 0.975
vt 0.5525 0.775
vt 0.5525 0.975
vt 0.5625 0.975
vt 0.5625 0.775
vt 0.5525 0.775
vt 0.5625 0.975
vt 0.5625 0.775
vt 0.5625 0.975
vt 0.5725 0.775
vt 0.5625 0.975
vt 0.5725 0.975
vt 0.5725 0.775
vt 0.5725 0.775
vt 0.5725 0.975
vt 0.5825 0.775
vt 0.5725 0.975
vt 0.5825 0.975
vt 0.5825 0.775
vt 0.5825 0.775
vt 0.5825 0.975
vt 0.5925 0.775
vt 0.5825 0.975
vt 0.5925 0.975
vt 0.5925 0.775
vt 0.5925 0.775
vt 0.5925 0.975
vt 0.6025 0.775
vt 0.5925 0.975
vt 0.6025 0.975
vt 0.6025 0.775
vt 0.6025 0.775
vt 0.6025 0.975
vt 0.6125 0.775
vt 0.6025 0.975
vt 0.6125 0.975
vt 0.6125 0.775
vt 0.5125 0.775
vt 0.5125 0.975
vt 0.5225 0.775
vt 0.5125 0.975
vt 0.5225 0.975
vt 0.5225 0.775
vt 0.5225 0.775
vt 0.5225 0.975
vt 0.5325 0.775
vt 0.5225 0.975
vt 0.5325 0.975
vt 0.5325 0.775
vt 0.5325 0.775
vt 0.5325 0.975
vt 0.5425 0.775
vt 0.5325 0.975
vt 0.5425 0.975
vt 0.5425 0.775
vt 0.5425 0.775
vt 0.5425 0.975
vt 0.5525 0.775
vt 0.5425 0.975
vt 0.5525 0.975
vt 0.5525 0.775
vt 0.5525 0.775
vt 0.5525 0.975
vt 0.5625 0.775
vt 0.5525 0.975
vt 0.5625 0.975
vt 0.5625 0.775
vt 0.5625 0.775
vt 0.5625 0.975
vt 0.5725 0.975
vt 0.5725 0.775
vt 0.5625 0.775
vt 0.5725 0.975
vt 0.5725 0.775
vt 0.5725 0.975
vt 0.5825 0.975
vt 0.5825 0.775
vt 0.5725 0.775
vt 0.5825 0.975
vt 0.5825 0.775
vt 0.5825 0.975
vt 0.5925 0.975
vt 0.5925 0.775
vt 0.5825 0.775
vt 0.5925 0.975
vt 0.5925 0.775
vt 0.5925 0.975
vt 0.6025 0.975
vt 0.6025 0.775
vt 0.5925 0.775
vt 0.6025 0.975
vt 0.6025 0.775
vt 0.6025 0.975
vt 0.6125 0.975
vt 0.6125 0.775
vt 0.6025 0.775
vt 0.6125 0.975
vt 0.5125 0.775
vt 0.5125 0.975
vt 0.5225 0.975
vt 0.5225 0.775
vt 0.5125 0.775
vt 0.5225 0.975
vt 0.5225 0.775
vt 0.5225 0.975
vt 0.5325 0.975
vt 0.5325 0.775
vt 0.5225 0.775
vt 0.5325 0.975
vt 0.5325 0.775
vt 0.5325 0.975
vt 0.5425 0.975
vt 0.5425 0.775
vt 0.5325 0.775
vt 0.5425 0.975
vt 0.5425 0.775
vt 0.5425 0.975
vt 0.5525 0.975
vt 0.5525 0.775
vt 0.5425 0.775
vt 0.5525 0.975
vt 0.5525 0.775
vt 0.5525 0.975
vt 0.5625 0.975
vt 0.5625 0.775
vt 0.5525 0.775
vt 0.5625 0.975
vt 0.5625 0.775
vt 0.5625 0.975
vt 0.5725 0.775
vt 0.5625 0.975
vt 0.5725 0.975
vt 0.5725 0.775
vt 0.5725 0.775
vt 0.5725 0.975
vt 0.5825 0.775
vt 0.5725 0.975
vt 0.5825 0.975
vt 0.5825 0.775
vt 0.5825 0.775
vt 0.5825 0.975
vt 0.5925 0.775
vt 0.5825 0.975
vt 0.5925 0.975
vt 0.5925 0.775
vt 0.5925 0.775
vt 0.5925 0.975
vt 0.6025 0.775
vt 0.5925 0.975
vt 0.6025 0.975
vt 0.6025 0.775
vt 0.6025 0.775
vt 0.6025 0.975
vt 0.6125 0.775
vt 0.6025 0.975
vt 0.6125 0.975
vt 0.6125 0.775
vt 0.5125 0.775
vt 0.5125 0.975
vt 0.5225 0.775
vt 0.5125 0.975
vt 0.5225 0.975
vt 0.5225 0.775
vt 0.5225 0.775
vt 0.5225 0.975
vt 0.5325 0.775
vt 0.5225 0.975
vt 0.5325 0.975
vt 0.5325 0.775
vt 0.5325 0.775
vt 0.5325 0.975
vt 0.5425 0.775
vt 0.5325 0.975
vt 0.5425 0.975
vt 0.5425 0.775
vt 0.5425 0.775
vt 0.5425 0.975
vt 0.5525 0.775
vt 0.5425 0.975
vt 0.5525 0.975
vt 0.5525 0.775
vt 0.5525 0.775
vt 0.5525 0.975
vt 0.5625 0.775
vt 0.5525 0.975
vt 0.5625 0.975
vt 0.5625 0.775
vt 0.5625 0.775
vt 0.5625 0.975
vt 0.5725 0.975
vt 0.5725 0.775
vt 0.5625 0.775
vt 0.5725 0.975
vt 0.5725 0.775
vt 0.5725 0.975
vt 0.5825 0.975
vt 0.5825 0.775
vt 0.5725 0.775
vt 0.5825 0.975
vt 0.5825 0.775
vt 0.5825 0.975
vt 0.5925 0.975
vt 0.5925 0.775
vt 0.5825 0.775
vt 0.5925 0.975
vt 0.5925 0.775
vt 0.5925 0.975
vt 0.6025 0.975
vt 0.6025 0.775
vt 0.5925 0.775
vt 0.6025 0.975
vt 0.6025 0.775
vt 0.6025 0.975
vt 0.6125 0.975
vt 0.6125 0.775
vt 0.6025 0.775
vt 0.6125 0.975
vt 0.5125 0.775
vt 0.5125 0.975
vt 0.5225 0.975
vt 0.5225 0.775
vt 0.5125 0.775
vt 0.5225 0.975
vt 0.5225 0.775
vt 0.5225 0.975
vt 0.5325 0.975
vt 0.5325 0.775
vt 0.5225 0.775
vt 0.5325 0.975
vt 0.5325 0.775
vt 0.5325 0.975
vt 0.5425 0.975
vt 0.5425 0.775
vt 0.5325 0.775
vt 0.5425 0.975
vt 0.5425 0.775
vt 0.5425 0.975
vt 0.5525 0.975
vt 0.5525 0.775
vt 0.5425 0.775
vt 0.5525 0.975
vt 0.5525 0.775
vt 0.5525 0.975
vt 0.5625 0.975
vt 0.5625 0.775
vt 0.5525 0.775
vt 0.5625 0.975
vt 0.5625 0.775
vt 0.5625 0.975
vt 0.5725 0.775
vt 0.5625 0.975
vt 0.5725 0.975
vt 0.5725 0.775
vt 0.5725 0.775
vt 0.5725 0.975
vt 0.5825 0.775
vt 0.5725 0.975
vt 0.5825 0.975
vt 0.5825 0.775
vt 0.5825 0.775
vt 0.5825 0.975
vt 0.5925 0.775
vt 0.5825 0.975
vt 0.5925 0.975
vt 0.5925 0.775
vt 0.5925 0.775
vt 0.5925 0.975
vt 0.6025 0.775
vt 0.5925 0.975
vt 0.6025 0.975
vt 0.6025 0.775
vt 0.6025 0.775
vt 0.6025 0.975
vt 0.6125 0.775
vt 0.6025 0.975
vt 0.6125 0.975
vt 0.6125 0.775
vt 0.5125 0.775
vt 0.5125 0.975
vt 0.5225 0.775
vt 0.5125 0.975
vt 0.5225 0.975
vt 0.5225 0.775
vt 0.5225 0.775
vt 0.5225 0.975
vt 0.5325 0.775
vt 0.5225 0.975
vt 0.5325 0.975
vt 0.5325 0.775
vt 0.5325 0.775
vt 0.5325 0.975
vt 0.5425 0.775
vt 0.5325 0.975
vt 0.5425 0.975
vt 0.5425 0.775
vt 0.5425 0.775
vt 0.5425 0.975
vt 0.5525 0.775
vt 0.5425 0.975
vt 0.5525 0.975
vt 0.5525 0.775
vt 0.5525 0.775
vt 0.5525 0.975
vt 0.5625 0.775
vt 0.5525 0.975
vt 0.5625 0.975
vt 0.5625 0.775

f 5/1 1/2 2/3
f 6/4 5/5 2/6
f 6/7 2/8 3/9
f 7/10 6/11 3/12
f 7/13 3/14 8/15
f 3/16 4/17 8/18
f 8/19 4/20 5/21
f 4/22 1/23 5/24
f 9/25 5/26 6/27
f 10/28 9/29 6/30
f 10/31 6/32 7/33
f 11/34 10/35 7/36
f 11/37 7/38 12/39
f 7/40 8/41 12/42
f 12/43 8/44 9/45
f 8/46 5/47 9/48
f 13/49 9/50 10/51
f 14/52 13/53 10/54
f 14/55 10/56 11/57
f 15/58 14/59 11/60
f 15/61 11/62 16/63
f 11/64 12/65 16/66
f 16/67 12/68 13/69
f 12/70 9/71 13/72
f 17/73 13/74 14/75
f 18/76 17/77 14/78
f 18/79 14/80 15/81
f 19/82 18/83 15/84
f 19/85 15/86 20/87
f 15/88 16/89 20/90
f 20/91 16/92 17/93
f 16/94 13/95 17/96
f 41/97 21/98 22/99
f 42/100 41/101 22/102
f 42/103 22/104 23/105
f 43/106 42/107 23/108
f 43/109 23/110 24/111
f 44/112 43/113 24/114
f 44/115 24/116 25/117
f 45/118 44/119 25/120
f 45/121 25/122 26/123
f 46/124 45/125 26/126
f 46/127 26/128 27/129
f 47/130 46/131 27/132
f 47/133 27/134 28/135
f 48/136 47/137 28/138
f 48/139 28/140 29/141
f 49/142 48/143 29/144
f 49/145 29/146 30/147
f 50/148 49/149 30/150
f 50/151 30/152 31/153
f 51/154 50/155 31/156
f 51/157 31/158 52/159
f 31/160 32/161 52/162
f 52/163 32/164 53/165
f 32/166 33/167 53/168
f 53/169 33/170 54/171
f 33/172 34/173 54/174
f 54/175 34/176 55/177
f 34/178 35/179 55/180
f 55/181 35/182 56/183
f 35/184 36/185 56/186
f 56/187 36/188 57/189
f 36/190 37/191 57/192
f 57/193 37/194 58/195
f 37/196 38/197 58/198
f 58/199 38/200 59/201
f 38/202 39/203 59/204
f 59/205 39/206 60/207
f 39/208 40/209 60/210
f 60/211 40/212 41/213
f 40/214 21/215 41/216
f 61/217 41/218 42/219
f 62/220 61/221 42/222
f 62/223 42/224 43/225
f 63/226 62/227 43/228
f 63/229 43/230 44/231
f 64/232 63/233 44/234
f 64/235 44/236 45/237
f 65/238 64/239 45/240
f 65/241 45/242 46/243
f 66/244 65/245 46/246
f 66/247 46/248 47/249
f 67/250 66/251 47/252
f 67/253 47/254 48/255
f 68/256 67/257 48/258
f 68/259 48/260 49/261
f 69/262 68/263 49/264
f 69/265 49/266 50/267
f 70/268 69/269 50/270
f 70/271 50/272 51/273
f 71/274 70/275 51/276
f 71/277 51/278 72/279
f 51/280 52/281 72/282
f 72/283 52/284 73/285
f 52/286 53/287 73/288
f 73/289 53/290 74/291
f 53/292 54/293 74/294
f 74/295 54/296 75/297
f 54/298 55/299 75/300
f 75/301 55/302 76/303
f 55/304 56/305 76/306
f 76/307 56/308 77/309
f 56/310 57/311 77/312
f 77/313 57/314 78/315
f 57/316 58/317 78/318
f 78/319 58/320 79/321
f 58/322 59/323 79/324
f 79/325 59/326 80/327
f 59/328 60/329 80/330
f 80/331 60/332 61/333
f 60/334 41/335 61/336
f 81/337 61/338 62/339
f 82/340 81/341 62/342
f 82/343 62/344 63/345
f 83/346 82/347 63/348
f 83/349 63/350 64/351
f 84/352 83/353 64/354
f 84/355 64/356 65/357
f 85/358 84/359 65/360
f 85/361 65/362 66/363
f 86/364 85/365 66/366
f 86/367 66/368 67/369
f 87/370 86/371 67/372
f 87/373 67/374 68/375
f 88/376 87/377 68/378
f 88/379 68/380 69/381
f 89/382 88/383 69/384
f 89/385 69/386 70/387
f 90/388 89/389 70/390
f 90/391 70/392 71/393
f 91/394 90/395 71/396
f 91/397 71/398 92/399
f 71/400 72/401 92/402
f 92/403 72/404 93/405
f 72/406 73/407 93/408
f 93/409 73/410 94/411
f 73/412 74/413 94/414
f 94/415 74/416 95/417
f 74/418 75/419 95/420
f 95/421 75/422 96/423
f 75/424 76/425 96/426
f 96/427 76/428 97/429
f 76/430 77/431 97/432
f 97/433 77/434 98/435
f 77/436 78/437 98/438
f 98/439 78/440 99/441
f 78/442 79/443 99/444
f 99/445 79/446 100/447
f 79/448 80/449 100/450
f 100/451 80/452 81/453
f 80/454 61/455 81/456
f 101/457 81/458 82/459
f 102/460 101/461 82/462
f 102/463 82/464 83/465
f 103/466 102/467 83/468
f 103/469 83/470 84/471
f 104/472 103/473 84/474
f 104/475 84/476 85/477
f 105/478 104/479 85/480
f 105/481 85/482 86/483
f 106/484 105/485 86/486
f 106/487 86/488 87/489
f 107/490 106/491 87/492
f 107/493 87/494 88/495
f 108/496 107/497 88/498
f 108/499 88/500 89/501
f 109/502 108/503 89/504
f 109/505 89/506 90/507
f 110/508 109/509 90/510
f 110/511 90/512 91/513
f 111/514 110/515 91/516
f 111/517 91/518 112/519
f 91/520 92/521 112/522
f 112/523 92/524 113/525
f 92/526 93/527 113/528
f 113/529 93/530 114/531
f 93/532 94/533 114/534
f 114/535 94/536 115/537
f 94/538 95/539 115/540
f 115/541 95/542 116/543
f 95/544 96/545 116/546
f 116/547 96/548 117/549
f 96/550 97/551 117/552
f 117/553 97/554 118/555
f 97/556 98/557 118/558
f 118/559 98/560 119/561
f 98/562 99/563 119/564
f 119/565 99/566 120/567
f 99/568 100/569 120/570
f 120/571 100/572 101/573
f 100/574 81/575 101/576
f 121/577 101/578 102/579
f 122/580 121/581 102/582
f 122/583 102/584 103/585
f 123/586 122/587 103/588
f 123/589 103/590 104/591
f 124/592 123/593 104/594
f 124/595 104/596 105/597
f 125/598 124/599 105/600
f 125/601 105/602 106/603
f 126/604 125/605 106/606
f 126/607 106/608 107/609
f 127/610 126/611 107/612
f 127/613 107/614 108/615
f 128/616 127/617 108/618
f 128/619 108/620 109/621
f 129/622 128/623 109/624
f 129/625 109/626 110/627
f 130/628 129/629 110/630
f 130/631 110/632 111/633
f 131/634 130/635 111/636
f 131/637 111/638 132/639
f 111/640 112/641 132/642
f 132/643 112/644 133/645
f 112/646 113/647 133/648
f 133/649 113/650 134/651
f 113/652 114/653 134/654
f 134/655 114/656 135/657
f 114/658 115/659 135/660
f 135/661 115/662 136/663
f 115/664 116/665 136/666
f 136/667 116/668 137/669
f 116/670 117/671 137/672
f 137/673 117/674 138/675
f 117/676 118/677 138/678
f 138/679 118/680 139/681
f 118/682 119/683 139/684
f 139/685 119/686 140/687
f 119/688 120/689 140/690
f 140/691 120/692 121/693
f 120/694 101/695 121/696
