v 0 0.4845 -0.035
v 0 0.4845 -0.035
v 0 0.4845 -0.035
v 0 0.4845 -0.035
v 0 0.4845 -0.035
v 0 0.4845 -0.035
v 0 0.4845 -0.035
v 0 0.4845 -0.035
v 0 0.4845 0.025
v 0 0.4845 0.025
v 0 0.4845 0.025
v 0 0.4845 0.025
v -0.04 0.3245 0.025
v 0.04 0.3245 0.025
v 0.04 0.6445 0.025
v -0.04 0.6445 0.025
v -0.04 0.3245 0.033
v 0.04 0.3245 0.033
v 0.04 0.6445 0.033
v -0.04 0.6445 0.033
v -0.03 0.3545 0.035
v 0.03 0.3545 0.035
v 0.03 0.6145 0.035
v -0.03 0.6145 0.035
v -0.024 0.3645 0.035
v 0.024 0.3645 0.035
v 0.024 0.6045 0.035
v -0.024 0.6045 0.035
v -0.024 0.3645 0.0315
v 0.024 0.3645 0.0315
v 0.024 0.6045 0.0315
v -0.024 0.6045 0.0315
v 0 0.4845 0.0315
v 0 0.4845 0.0315
v 0 0.4845 0.0315
v 0 0.4845 0.0315
v 0 -0.4845 -0.035
v 0 -0.4845 -0.035
v 0 -0.4845 -0.035
v 0 -0.4845 -0.035
v 0 -0.4845 -0.035
v 0 -0.4845 -0.035
v 0 -0.4845 -0.035
v 0 -0.4845 -0.035
v 0 -0.4845 0.025
v 0 -0.4845 0.025
v 0 -0.4845 0.025
v 0 -0.4845 0.025
v 0.04 -0.3245 0.025
v -0.04 -0.3245 0.025
v -0.04 -0.6445 0.025
v 0.04 -0.6445 0.025
v 0.04 -0.3245 0.033
v -0.04 -0.3245 0.033
v -0.04 -0.6445 0.033
v 0.04 -0.6445 0.033
v 0.03 -0.3545 0.035
v -0.03 -0.3545 0.035
v -0.03 -0.6145 0.035
v 0.03 -0.6145 0.035
v 0.024 -0.3645 0.035
v -0.024 -0.3645 0.035
v -0.024 -0.6045 0.035
v 0.024 -0.6045 0.035
v 0.024 -0.3645 0.0315
v -0.024 -0.3645 0.0315
v -0.024 -0.6045 0.0315
v 0.024 -0.6045 0.0315
v 0 -0.4845 0.0315
v 0 -0.4845 0.0315
v 0 -0.4845 0.0315
v 0 -0.4845 0.0315
v -0.4845 0 -0.035
v -0.4845 0 -0.035
v -0.4845 0 -0.035
v -0.4845 0 -0.035
v -0.4845 0 -0.035
v -0.4845 0 -0.035
v -0.4845 0 -0.035
v -0.4845 0 -0.035
v -0.4845 0 0.025
v -0.4845 0 0.025
v -0.4845 0 0.025
v -0.4845 0 0.025
v -0.6445 -0.04 0.025
v -0.3245 -0.04 0.025
v -0.3245 0.04 0.025
v -0.6445 0.04 0.025
v -0.6445 -0.04 0.033
v -0.3245 -0.04 0.033
v -0.3245 0.04 0.033
v -0.6445 0.04 0.033
v -0.6145 -0.03 0.035
v -0.3545 -0.03 0.035
v -0.3545 0.03 0.035
v -0.6145 0.03 0.035
v -0.6045 -0.024 0.035
v -0.3645 -0.024 0.035
v -0.3645 0.024 0.035
v -0.6045 0.024 0.035
v -0.6045 -0.024 0.0315
v -0.3645 -0.024 0.0315
v -0.3645 0.024 0.0315
v -0.6045 0.024 0.0315
v -0.4845 0 0.0315
v -0.4845 0 0.0315
v -0.4845 0 0.0315
v -0.4845 0 0.0315
v 0.4845 0 -0.035
v 0.4845 0 -0.035
v 0.4845 0 -0.035
v 0.4845 0 -0.035
v 0.4845 0 -0.035
v 0.4845 0 -0.035
v 0.4845 0 -0.035
v 0.4845 0 -0.035
v 0.4845 0 0.025
v 0.4845 0 0.025
v 0.4845 0 0.025
v 0.4845 0 0.025
v 0.3245 -0.04 0.025
v 0.6445 -0.04 0.025
v 0.6445 0.04 0.025
v 0.3245 0.04 0.025
v 0.3245 -0.04 0.033
v 0.6445 -0.04 0.033
v 0.6445 0.04 0.033
v 0.3245 0.04 0.033
v 0.3545 -0.03 0.035
v 0.6145 -0.03 0.035
v 0.6145 0.03 0.035
v 0.3545 0.03 0.035
v 0.3645 -0.024 0.035
v 0.6045 -0.024 0.035
v 0.6045 0.024 0.035
v 0.3645 0.024 0.035
v 0.3645 -0.024 0.0315
v 0.6045 -0.024 0.0315
v 0.6045 0.024 0.0315
v 0.3645 0.024 0.0315
v 0.4845 0 0.0315
v 0.4845 0 0.0315
v 0.4845 0 0.0315
v 0.4845 0 0.0315

vt 0.1875 0.775
vt 0.1875 0.975
vt 0.2375 0.975
vt 0.2375 0.775
vt 0.1875 0.775
vt 0.2375 0.975
vt 0.1375 0.775
vt 0.1375 0.975
vt 0.1875 0.975
vt 0.1875 0.775
vt 0.1375 0.775
vt 0.1875 0.975
vt 0.1875 0.775
vt 0.1875 0.975
vt 0.2375 0.775
vt 0.1875 0.975
vt 0.2375 0.975
vt 0.2375 0.775
vt 0.1375 0.775
vt 0.1375 0.975
vt 0.1875 0.775
vt 0.1375 0.975
vt 0.1875 0.975
vt 0.1875 0.775
vt 0.1875 0.775
vt 0.1875 0.975
vt 0.2375 0.975
vt 0.2375 0.775
vt 0.1875 0.775
vt 0.2375 0.975
vt 0.1375 0.775
vt 0.1375 0.975
vt 0.1875 0.975
vt 0.1875 0.775
vt 0.1375 0.775
vt 0.1875 0.975
vt 0.1875 0.775
vt 0.1875 0.975
vt 0.2375 0.775
vt 0.1875 0.975
vt 0.2375 0.975
vt 0.2375 0.775
vt 0.1375 0.775
vt 0.1375 0.975
vt 0.1875 0.775
vt 0.1375 0.975
vt 0.1875 0.975
vt 0.1875 0.775
vt 0.1875 0.775
vt 0.1875 0.975
vt 0.2375 0.975
vt 0.2375 0.775
vt 0.1875 0.775
vt 0.2375 0.975
vt 0.1375 0.775
vt 0.1375 0.975
vt 0.1875 0.975
vt 0.1875 0.775
vt 0.1375 0.775
vt 0.1875 0.975
vt 0.1875 0.775
vt 0.1875 0.975
vt 0.2375 0.775
vt 0.1875 0.975
vt 0.2375 0.975
vt 0.2375 0.775
vt 0.1375 0.775
vt 0.1375 0.975
vt 0.1875 0.775
vt 0.1375 0.975
vt 0.1875 0.975
vt 0.1875 0.775
vt 0.1375 0.775
vt 0.1375 0.975
vt 0.2375 0.975
vt 0.2375 0.775
vt 0.1375 0.775
vt 0.2375 0.975
vt 0.1375 0.775
vt 0.1375 0.975
vt 0.2375 0.975
vt 0.2375 0.775
vt 0.1375 0.775
vt 0.2375 0.975
vt 0.1375 0.775
vt 0.1375 0.975
vt 0.2375 0.775
vt 0.1375 0.975
vt 0.2375 0.975
vt 0.2375 0.775
vt 0.1375 0.775
vt 0.1375 0.975
vt 0.2375 0.775
vt 0.1375 0.975
vt 0.2375 0.975
vt 0.2375 0.775
vt 0.1375 0.775
vt 0.1375 0.975
vt 0.2375 0.975
vt 0.2375 0.775
vt 0.1375 0.775
vt 0.2375 0.975
vt 0.1375 0.775
vt 0.1375 0.975
vt 0.2375 0.975
vt 0.2375 0.775
vt 0.1375 0.775
vt 0.2375 0.975
vt 0.1375 0.775
vt 0.1375 0.975
vt 0.2375 0.775
vt 0.1375 0.975
vt 0.2375 0.975
vt 0.2375 0.775
vt 0.1375 0.775
vt 0.1375 0.975
vt 0.2375 0.775
vt 0.1375 0.975
vt 0.2375 0.975
vt 0.2375 0.775
vt 0.1875 0.775
vt 0.1875 0.975
vt 0.2375 0.975
vt 0.2375 0.775
vt 0.1875 0.775
vt 0.2375 0.975
vt 0.1375 0.775
vt 0.1375 0.975
vt 0.1875 0.975
vt 0.1875 0.775
vt 0.1375 0.775
vt 0.1875 0.975
vt 0.1875 0.775
vt 0.1875 0.975
vt 0.2375 0.775
vt 0.1875 0.975
vt 0.2375 0.975
vt 0.2375 0.775
vt 0.1375 0.775
vt 0.1375 0.975
vt 0.1875 0.775
vt 0.1375 0.975
vt 0.1875 0.975
vt 0.1875 0.775
vt 0.5125 0.775
vt 0.5125 0.975
vt 0.6125 0.975
vt 0.6125 0.775
vt 0.5125 0.775
vt 0.6125 0.975
vt 0.5125 0.775
vt 0.5125 0.975
vt 0.6125 0.975
vt 0.6125 0.775
vt 0.5125 0.775
vt 0.6125 0.975
vt 0.5125 0.775
vt 0.5125 0.975
vt 0.6125 0.775
vt 0.5125 0.975
vt 0.6125 0.975
vt 0.6125 0.775
vt 0.5125 0.775
vt 0.5125 0.975
vt 0.6125 0.775
vt 0.5125 0.975
vt 0.6125 0.975
vt 0.6125 0.775
vt 0.5625 0.775
vt 0.5625 0.975
vt 0.6125 0.975
vt 0.6125 0.775
vt 0.5625 0.775
vt 0.6125 0.975
vt 0.5125 0.775
vt 0.5125 0.975
vt 0.5625 0.975
vt 0.5625 0.775
vt 0.5125 0.775
vt 0.5625 0.975
vt 0.5625 0.775
vt 0.5625 0.975
vt 0.6125 0.775
vt 0.5625 0.975
vt 0.6125 0.975
vt 0.6125 0.775
vt 0.5125 0.775
vt 0.5125 0.975
vt 0.5625 0.775
vt 0.5125 0.975
vt 0.5625 0.975
vt 0.5625 0.775
vt 0.1875 0.775
vt 0.1875 0.975
vt 0.2375 0.975
vt 0.2375 0.775
vt 0.1875 0.775
vt 0.2375 0.975
vt 0.1375 0.775
vt 0.1375 0.975
vt 0.1875 0.975
vt 0.1875 0.775
vt 0.1375 0.775
vt 0.1875 0.975
vt 0.1875 0.775
vt 0.1875 0.975
vt 0.2375 0.775
vt 0.1875 0.975
vt 0.2375 0.975
vt 0.2375 0.775
vt 0.1375 0.775
vt 0.1375 0.975
vt 0.1875 0.775
vt 0.1375 0.975
vt 0.1875 0.975
vt 0.1875 0.775
vt 0.1875 0.775
vt 0.1875 0.975
vt 0.2375 0.975
vt 0.2375 0.775
vt 0.1875 0.775
vt 0.2375 0.975
vt 0.1375 0.775
vt 0.1375 0.975
vt 0.1875 0.975
vt 0.1875 0.775
vt 0.1375 0.775
vt 0.1875 0.975
vt 0.1875 0.775
vt 0.1875 0.975
vt 0.2375 0.775
vt 0.1875 0.975
vt 0.2375 0.975
vt 0.2375 0.775
vt 0.1375 0.775
vt 0.1375 0.975
vt 0.1875 0.775
vt 0.1375 0.975
vt 0.1875 0.975
vt 0.1875 0.775
vt 0.1875 0.775
vt 0.1875 0.975
vt 0.2375 0.975
vt 0.2375 0.775
vt 0.1875 0.775
vt 0.2375 0.975
vt 0.1375 0.775
vt 0.1375 0.975
vt 0.1875 0.975
vt 0.1875 0.775
vt 0.1375 0.775
vt 0.1875 0.975
vt 0.1875 0.775
vt 0.1875 0.975
vt 0.2375 0.775
vt 0.1875 0.975
vt 0.2375 0.975
vt 0.2375 0.775
vt 0.1375 0.775
vt 0.1375 0.975
vt 0.1875 0.775
vt 0.1375 0.975
vt 0.1875 0.975
vt 0.1875 0.775
vt 0.1375 0.775
vt 0.1375 0.975
vt 0.2375 0.975
vt 0.2375 0.775
vt 0.1375 0.775
vt 0.2375 0.975
vt 0.1375 0.775
vt 0.1375 0.975
vt 0.2375 0.975
vt 0.2375 0.775
vt 0.1375 0.775
vt 0.2375 0.975
vt 0.1375 0.775
vt 0.1375 0.975
vt 0.2375 0.775
vt 0.1375 0.975
vt 0.2375 0.975
vt 0.2375 0.775
vt 0.1375 0.775
vt 0.1375 0.975
vt 0.2375 0.775
vt 0.1375 0.975
vt 0.2375 0.975
vt 0.2375 0.775
vt 0.1375 0.775
vt 0.1375 0.975
vt 0.2375 0.975
vt 0.2375 0.775
vt 0.1375 0.775
vt 0.2375 0.975
vt 0.1375 0.775
vt 0.1375 0.975
vt 0.2375 0.975
vt 0.2375 0.775
vt 0.1375 0.775
vt 0.2375 0.975
vt 0.1375 0.775
vt 0.1375 0.975
vt 0.2375 0.775
vt 0.1375 0.975
vt 0.2375 0.975
vt 0.2375 0.775
vt 0.1375 0.775
vt 0.1375 0.975
vt 0.2375 0.775
vt 0.1375 0.975
vt 0.2375 0.975
vt 0.2375 0.775
vt 0.1875 0.775
vt 0.1875 0.975
vt 0.2375 0.975
vt 0.2375 0.775
vt 0.1875 0.775
vt 0.2375 0.975
vt 0.1375 0.775
vt 0.1375 0.975
vt 0.1875 0.975
vt 0.1875 0.775
vt 0.1375 0.775
vt 0.1875 0.975
vt 0.1875 0.775
vt 0.1875 0.975
vt 0.2375 0.775
vt 0.1875 0.975
vt 0.2375 0.975
vt 0.2375 0.775
vt 0.1375 0.775
vt 0.1375 0.975
vt 0.1875 0.775
vt 0.1375 0.975
vt 0.1875 0.975
vt 0.1875 0.775
vt 0.5125 0.775
vt 0.5125 0.975
vt 0.6125 0.975
vt 0.6125 0.775
vt 0.5125 0.775
vt 0.6125 0.975
vt 0.5125 0.775
vt 0.5125 0.975
vt 0.6125 0.975
vt 0.6125 0.775
vt 0.5125 0.775
vt 0.6125 0.975
vt 0.5125 0.775
vt 0.5125 0.975
vt 0.6125 0.775
vt 0.5125 0.975
vt 0.6125 0.975
vt 0.6125 0.775
vt 0.5125 0.775
vt 0.5125 0.975
vt 0.6125 0.775
vt 0.5125 0.975
vt 0.6125 0.975
vt 0.6125 0.775
vt 0.5625 0.775
vt 0.5625 0.975
vt 0.6125 0.975
vt 0.6125 0.775
vt 0.5625 0.775
vt 0.6125 0.975
vt 0.5125 0.775
vt 0.5125 0.975
vt 0.5625 0.975
vt 0.5625 0.775
vt 0.5125 0.775
vt 0.5625 0.975
vt 0.5625 0.775
vt 0.5625 0.975
vt 0.6125 0.775
vt 0.5625 0.975
vt 0.6125 0.975
vt 0.6125 0.775
vt 0.5125 0.775
vt 0.5125 0.975
vt 0.5625 0.775
vt 0.5125 0.975
vt 0.5625 0.975
vt 0.5625 0.775
vt 0.1875 0.775
vt 0.1875 0.975
vt 0.2375 0.975
vt 0.2375 0.775
vt 0.1875 0.775
vt 0.2375 0.975
vt 0.1375 0.775
vt 0.1375 0.975
vt 0.1875 0.975
vt 0.1875 0.775
vt 0.1375 0.775
vt 0.1875 0.975
vt 0.1875 0.775
vt 0.1875 0.975
vt 0.2375 0.775
vt 0.1875 0.975
vt 0.2375 0.975
vt 0.2375 0.775
vt 0.1375 0.775
vt 0.1375 0.975
vt 0.1875 0.775
vt 0.1375 0.975
vt 0.1875 0.975
vt 0.1875 0.775
vt 0.1875 0.775
vt 0.1875 0.975
vt 0.2375 0.975
vt 0.2375 0.775
vt 0.1875 0.775
vt 0.2375 0.975
vt 0.1375 0.775
vt 0.1375 0.975
vt 0.1875 0.975
vt 0.1875 0.775
vt 0.1375 0.775
vt 0.1875 0.975
vt 0.1875 0.775
vt 0.1875 0.975
vt 0.2375 0.775
vt 0.1875 0.975
vt 0.2375 0.975
vt 0.2375 0.775
vt 0.1375 0.775
vt 0.1375 0.975
vt 0.1875 0.775
vt 0.1375 0.975
vt 0.1875 0.975
vt 0.1875 0.775
vt 0.1875 0.775
vt 0.1875 0.975
vt 0.2375 0.975
vt 0.2375 0.775
vt 0.1875 0.775
vt 0.2375 0.975
vt 0.1375 0.775
vt 0.1375 0.975
vt 0.1875 0.975
vt 0.1875 0.775
vt 0.1375 0.775
vt 0.1875 0.975
vt 0.1875 0.775
vt 0.1875 0.975
vt 0.2375 0.775
vt 0.1875 0.975
vt 0.2375 0.975
vt 0.2375 0.775
vt 0.1375 0.775
vt 0.1375 0.975
vt 0.1875 0.775
vt 0.1375 0.975
vt 0.1875 0.975
vt 0.1875 0.775
vt 0.1375 0.775
vt 0.1375 0.975
vt 0.2375 0.975
vt 0.2375 0.775
vt 0.1375 0.775
vt 0.2375 0.975
vt 0.1375 0.775
vt 0.1375 0.975
vt 0.2375 0.975
vt 0.2375 0.775
vt 0.1375 0.775
vt 0.2375 0.975
vt 0.1375 0.775
vt 0.1375 0.975
vt 0.2375 0.775
vt 0.1375 0.975
vt 0.2375 0.975
vt 0.2375 0.775
vt 0.1375 0.775
vt 0.1375 0.975
vt 0.2375 0.775
vt 0.1375 0.975
vt 0.2375 0.975
vt 0.2375 0.775
vt 0.1375 0.775
vt 0.1375 0.975
vt 0.2375 0.975
vt 0.2375 0.775
vt 0.1375 0.775
vt 0.2375 0.975
vt 0.1375 0.775
vt 0.1375 0.975
vt 0.2375 0.975
vt 0.2375 0.775
vt 0.1375 0.775
vt 0.2375 0.975
vt 0.1375 0.775
vt 0.1375 0.975
vt 0.2375 0.775
vt 0.1375 0.975
vt 0.2375 0.975
vt 0.2375 0.775
vt 0.1375 0.775
vt 0.1375 0.975
vt 0.2375 0.775
vt 0.1375 0.975
vt 0.2375 0.975
vt 0.2375 0.775
vt 0.1875 0.775
vt 0.1875 0.975
vt 0.2375 0.975
vt 0.2375 0.775
vt 0.1875 0.775
vt 0.2375 0.975
vt 0.1375 0.775
vt 0.1375 0.975
vt 0.1875 0.975
vt 0.1875 0.775
vt 0.1375 0.775
vt 0.1875 0.975
vt 0.1875 0.775
vt 0.1875 0.975
vt 0.2375 0.775
vt 0.1875 0.975
vt 0.2375 0.975
vt 0.2375 0.775
vt 0.1375 0.775
vt 0.1375 0.975
vt 0.1875 0.775
vt 0.1375 0.975
vt 0.1875 0.975
vt 0.1875 0.775
vt 0.5125 0.775
vt 0.5125 0.975
vt 0.6125 0.975
vt 0.6125 0.775
vt 0.5125 0.775
vt 0.6125 0.975
vt 0.5125 0.775
vt 0.5125 0.975
vt 0.6125 0.975
vt 0.6125 0.775
vt 0.5125 0.775
vt 0.6125 0.975
vt 0.5125 0.775
vt 0.5125 0.975
vt 0.6125 0.775
vt 0.5125 0.975
vt 0.6125 0.975
vt 0.6125 0.775
vt 0.5125 0.775
vt 0.5125 0.975
vt 0.6125 0.775
vt 0.5125 0.975
vt 0.6125 0.975
vt 0.6125 0.775
vt 0.5625 0.775
vt 0.5625 0.975
vt 0.6125 0.975
vt 0.6125 0.775
vt 0.5625 0.775
vt 0.6125 0.975
vt 0.5125 0.775
vt 0.5125 0.975
vt 0.5625 0.975
vt 0.5625 0.775
vt 0.5125 0.775
vt 0.5625 0.975
vt 0.5625 0.775
vt 0.5625 0.975
vt 0.6125 0.775
vt 0.5625 0.975
vt 0.6125 0.975
vt 0.6125 0.775
vt 0.5125 0.775
vt 0.5125 0.975
vt 0.5625 0.775
vt 0.5125 0.975
vt 0.5625 0.975
vt 0.5625 0.775
vt 0.1875 0.775
vt 0.1875 0.975
vt 0.2375 0.975
vt 0.2375 0.775
vt 0.1875 0.775
vt 0.2375 0.975
vt 0.1375 0.775
vt 0.1375 0.975
vt 0.1875 0.975
vt 0.1875 0.775
vt 0.1375 0.775
vt 0.1875 0.975
vt 0.1875 0.775
vt 0.1875 0.975
vt 0.2375 0.775
vt 0.1875 0.975
vt 0.2375 0.975
vt 0.2375 0.775
vt 0.1375 0.775
vt 0.1375 0.975
vt 0.1875 0.775
vt 0.1375 0.975
vt 0.1875 0.975
vt 0.1875 0.775
vt 0.1875 0.775
vt 0.1875 0.975
vt 0.2375 0.975
vt 0.2375 0.775
vt 0.1875 0.775
vt 0.2375 0.975
vt 0.1375 0.775
vt 0.1375 0.975
vt 0.1875 0.975
vt 0.1875 0.775
vt 0.1375 0.775
vt 0.1875 0.975
vt 0.1875 0.775
vt 0.1875 0.975
vt 0.2375 0.775
vt 0.1875 0.975
vt 0.2375 0.975
vt 0.2375 0.775
vt 0.1375 0.775
vt 0.1375 0.975
vt 0.1875 0.775
vt 0.1375 0.975
vt 0.1875 0.975
vt 0.1875 0.775
vt 0.1875 0.775
vt 0.1875 0.975
vt 0.2375 0.975
vt 0.2375 0.775
vt 0.1875 0.775
vt 0.2375 0.975
vt 0.1375 0.775
vt 0.1375 0.975
vt 0.1875 0.975
vt 0.1875 0.775
vt 0.1375 0.775
vt 0.1875 0.975
vt 0.1875 0.775
vt 0.1875 0.975
vt 0.2375 0.775
vt 0.1875 0.975
vt 0.2375 0.975
vt 0.2375 0.775
vt 0.1375 0.775
vt 0.1375 0.975
vt 0.1875 0.775
vt 0.1375 0.975
vt 0.1875 0.975
vt 0.1875 0.775
vt 0.1375 0.775
vt 0.1375 0.975
vt 0.2375 0.975
vt 0.2375 0.775
vt 0.1375 0.775
vt 0.2375 0.975
vt 0.1375 0.775
vt 0.1375 0.975
vt 0.2375 0.975
vt 0.2375 0.775
vt 0.1375 0.775
vt 0.2375 0.975
vt 0.1375 0.775
vt 0.1375 0.975
vt 0.2375 0.775
vt 0.1375 0.975
vt 0.2375 0.975
vt 0.2375 0.775
vt 0.1375 0.775
vt 0.1375 0.975
vt 0.2375 0.775
vt 0.1375 0.975
vt 0.2375 0.975
vt 0.2375 0.775
vt 0.1375 0.775
vt 0.1375 0.975
vt 0.2375 0.975
vt 0.2375 0.775
vt 0.1375 0.775
vt 0.2375 0.975
vt 0.1375 0.775
vt 0.1375 0.975
vt 0.2375 0.975
vt 0.2375 0.775
vt 0.1375 0.775
vt 0.2375 0.975
vt 0.1375 0.775
vt 0.1375 0.975
vt 0.2375 0.775
vt 0.1375 0.975
vt 0.2375 0.975
vt 0.2375 0.775
vt 0.1375 0.775
vt 0.1375 0.975
vt 0.2375 0.775
vt 0.1375 0.975
vt 0.2375 0.975
vt 0.2375 0.775
vt 0.1875 0.775
vt 0.1875 0.975
vt 0.2375 0.975
vt 0.2375 0.775
vt 0.1875 0.775
vt 0.2375 0.975
vt 0.1375 0.775
vt 0.1375 0.975
vt 0.1875 0.975
vt 0.1875 0.775
vt 0.1375 0.775
vt 0.1875 0.975
vt 0.1875 0.775
vt 0.1875 0.975
vt 0.2375 0.775
vt 0.1875 0.975
vt 0.2375 0.975
vt 0.2375 0.775
vt 0.1375 0.775
vt 0.1375 0.975
vt 0.1875 0.775
vt 0.1375 0.975
vt 0.1875 0.975
vt 0.1875 0.775
vt 0.5125 0.775
vt 0.5125 0.975
vt 0.6125 0.975
vt 0.6125 0.775
vt 0.5125 0.775
vt 0.6125 0.975
vt 0.5125 0.775
vt 0.5125 0.975
vt 0.6125 0.975
vt 0.6125 0.775
vt 0.5125 0.775
vt 0.6125 0.975
vt 0.5125 0.775
vt 0.5125 0.975
vt 0.6125 0.775
vt 0.5125 0.975
vt 0.6125 0.975
vt 0.6125 0.775
vt 0.5125 0.775
vt 0.5125 0.975
vt 0.6125 0.775
vt 0.5125 0.975
vt 0.6125 0.975
vt 0.6125 0.775
vt 0.5625 0.775
vt 0.5625 0.975
vt 0.6125 0.975
vt 0.6125 0.775
vt 0.5625 0.775
vt 0.6125 0.975
vt 0.5125 0.775
vt 0.5125 0.975
vt 0.5625 0.975
vt 0.5625 0.775
vt 0.5125 0.775
vt 0.5625 0.975
vt 0.5625 0.775
vt 0.5625 0.975
vt 0.6125 0.775
vt 0.5625 0.975
vt 0.6125 0.975
vt 0.6125 0.775
vt 0.5125 0.775
vt 0.5125 0.975
vt 0.5625 0.775
vt 0.5125 0.975
vt 0.5625 0.975
vt 0.5625 0.775

f 5/1 1/2 2/3
f 6/4 5/5 2/6
f 6/7 2/8 3/9
f 7/10 6/11 3/12
f 7/13 3/14 8/15
f 3/16 4/17 8/18
f 8/19 4/20 5/21
f 4/22 1/23 5/24
f 9/25 5/26 6/27
f 10/28 9/29 6/30
f 10/31 6/32 7/33
f 11/34 10/35 7/36
f 11/37 7/38 12/39
f 7/40 8/41 12/42
f 12/43 8/44 9/45
f 8/46 5/47 9/48
f 13/49 9/50 10/51
f 14/52 13/53 10/54
f 14/55 10/56 11/57
f 15/58 14/59 11/60
f 15/61 11/62 16/63
f 11/64 12/65 16/66
f 16/67 12/68 13/69
f 12/70 9/71 13/72
f 17/73 13/74 14/75
f 18/76 17/77 14/78
f 18/79 14/80 15/81
f 19/82 18/83 15/84
f 19/85 15/86 20/87
f 15/88 16/89 20/90
f 20/91 16/92 17/93
f 16/94 13/95 17/96
f 21/97 17/98 18/99
f 22/100 21/101 18/102
f 22/103 18/104 19/105
f 23/106 22/107 19/108
f 23/109 19/110 24/111
f 19/112 20/113 24/114
f 24/115 20/116 21/117
f 20/118 17/119 21/120
f 25/121 21/122 22/123
f 26/124 25/125 22/126
f 26/127 22/128 23/129
f 27/130 26/131 23/132
f 27/133 23/134 28/135
f 23/136 24/137 28/138
f 28/139 24/140 25/141
f 24/142 21/143 25/144
f 29/145 25/146 26/147
f 30/148 29/149 26/150
f 30/151 26/152 27/153
f 31/154 30/155 27/156
f 31/157 27/158 32/159
f 27/160 28/161 32/162
f 32/163 28/164 29/165
f 28/166 25/167 29/168
f 33/169 29/170 30/171
f 34/172 33/173 30/174
f 34/175 30/176 31/177
f 35/178 34/179 31/180
f 35/181 31/182 36/183
f 31/184 32/185 36/186
f 36/187 32/188 33/189
f 32/190 29/191 33/192
f 41/193 37/194 38/195
f 42/196 41/197 38/198
f 42/199 38/200 39/201
f 43/202 42/203 39/204
f 43/205 39/206 44/207
f 39/208 40/209 44/210
f 44/211 40/212 41/213
f 40/214 37/215 41/216
f 45/217 41/218 42/219
f 46/220 45/221 42/222
f 46/223 42/224 43/225
f 47/226 46/227 43/228
f 47/229 43/230 48/231
f 43/232 44/233 48/234
f 48/235 44/236 45/237
f 44/238 41/239 45/240
f 49/241 45/242 46/243
f 50/244 49/245 46/246
f 50/247 46/248 47/249
f 51/250 50/251 47/252
f 51/253 47/254 52/255
f 47/256 48/257 52/258
f 52/259 48/260 49/261
f 48/262 45/263 49/264
f 53/265 49/266 50/267
f 54/268 53/269 50/270
f 54/271 50/272 51/273
f 55/274 54/275 51/276
f 55/277 51/278 56/279
f 51/280 52/281 56/282
f 56/283 52/284 53/285
f 52/286 49/287 53/288
f 57/289 53/290 54/291
f 58/292 57/293 54/294
f 58/295 54/296 55/297
f 59/298 58/299 55/300
f 59/301 55/302 60/303
f 55/304 56/305 60/306
f 60/307 56/308 57/309
f 56/310 53/311 57/312
f 61/313 57/314 58/315
f 62/316 61/317 58/318
f 62/319 58/320 59/321
f 63/322 62/323 59/324
f 63/325 59/326 64/327
f 59/328 60/329 64/330
f 64/331 60/332 61/333
f 60/334 57/335 61/336
f 65/337 61/338 62/339
f 66/340 65/341 62/342
f 66/343 62/344 63/345
f 67/346 66/347 63/348
f 67/349 63/350 68/351
f 63/352 64/353 68/354
f 68/355 64/356 65/357
f 64/358 61/359 65/360
f 69/361 65/362 66/363
f 70/364 69/365 66/366
f 70/367 66/368 67/369
f 71/370 70/371 67/372
f 71/373 67/374 72/375
f 67/376 68/377 72/378
f 72/379 68/380 69/381
f 68/382 65/383 69/384
f 77/385 73/386 74/387
f 78/388 77/389 74/390
f 78/391 74/392 75/393
f 79/394 78/395 75/396
f 79/397 75/398 80/399
f 75/400 76/401 80/402
f 80/403 76/404 77/405
f 76/406 73/407 77/408
f 81/409 77/410 78/411
f 82/412 81/413 78/414
f 82/415 78/416 79/417
f 83/418 82/419 79/420
f 83/421 79/422 84/423
f 79/424 80/425 84/426
f 84/427 80/428 81/429
f 80/430 77/431 81/432
f 85/433 81/434 82/435
f 86/436 85/437 82/438
f 86/439 82/440 83/441
f 87/442 86/443 83/444
f 87/445 83/446 88/447
f 83/448 84/449 88/450
f 88/451 84/452 85/453
f 84/454 81/455 85/456
f 89/457 85/458 86/459
f 90/460 89/461 86/462
f 90/463 86/464 87/465
f 91/466 90/467 87/468
f 91/469 87/470 92/471
f 87/472 88/473 92/474
f 92/475 88/476 89/477
f 88/478 85/479 89/480
f 93/481 89/482 90/483
f 94/484 93/485 90/486
f 94/487 90/488 91/489
f 95/490 94/491 91/492
f 95/493 91/494 96/495
f 91/496 92/497 96/498
f 96/499 92/500 93/501
f 92/502 89/503 93/504
f 97/505 93/506 94/507
f 98/508 97/509 94/510
f 98/511 94/512 95/513
f 99/514 98/515 95/516
f 99/517 95/518 100/519
f 95/520 96/521 100/522
f 100/523 96/524 97/525
f 96/526 93/527 97/528
f 101/529 97/530 98/531
f 102/532 101/533 98/534
f 102/535 98/536 99/537
f 103/538 102/539 99/540
f 103/541 99/542 104/543
f 99/544 100/545 104/546
f 104/547 100/548 101/549
f 100/550 97/551 101/552
f 105/553 101/554 102/555
f 106/556 105/557 102/558
f 106/559 102/560 103/561
f 107/562 106/563 103/564
f 107/565 103/566 108/567
f 103/568 104/569 108/570
f 108/571 104/572 105/573
f 104/574 101/575 105/576
f 113/577 109/578 110/579
f 114/580 113/581 110/582
f 114/583 110/584 111/585
f 115/586 114/587 111/588
f 115/589 111/590 116/591
f 111/592 112/593 116/594
f 116/595 112/596 113/597
f 112/598 109/599 113/600
f 117/601 113/602 114/603
f 118/604 117/605 114/606
f 118/607 114/608 115/609
f 119/610 118/611 115/612
f 119/613 115/614 120/615
f 115/616 116/617 120/618
f 120/619 116/620 117/621
f 116/622 113/623 117/624
f 121/625 117/626 118/627
f 122/628 121/629 118/630
f 122/631 118/632 119/633
f 123/634 122/635 119/636
f 123/637 119/638 124/639
f 119/640 120/641 124/642
f 124/643 120/644 121/645
f 120/646 117/647 121/648
f 125/649 121/650 122/651
f 126/652 125/653 122/654
f 126/655 122/656 123/657
f 127/658 126/659 123/660
f 127/661 123/662 128/663
f 123/664 124/665 128/666
f 128/667 124/668 125/669
f 124/670 121/671 125/672
f 129/673 125/674 126/675
f 130/676 129/677 126/678
f 130/679 126/680 127/681
f 131/682 130/683 127/684
f 131/685 127/686 132/687
f 127/688 128/689 132/690
f 132/691 128/692 129/693
f 128/694 125/695 129/696
f 133/697 129/698 130/699
f 134/700 133/701 130/702
f 134/703 130/704 131/705
f 135/706 134/707 131/708
f 135/709 131/710 136/711
f 131/712 132/713 136/714
f 136/715 132/716 133/717
f 132/718 129/719 133/720
f 137/721 133/722 134/723
f 138/724 137/725 134/726
f 138/727 134/728 135/729
f 139/730 138/731 135/732
f 139/733 135/734 140/735
f 135/736 136/737 140/738
f 140/739 136/740 137/741
f 136/742 133/743 137/744
f 141/745 137/746 138/747
f 142/748 141/749 138/750
f 142/751 138/752 139/753
f 143/754 142/755 139/756
f 143/757 139/758 144/759
f 139/760 140/761 144/762
f 144/763 140/764 141/765
f 140/766 137/767 141/768
